<svg width="16" height="16" viewBox="0 0 16 16" fill="none" xmlns="http://www.w3.org/2000/svg">
<path d="M6.80281 1.71127L7.59558 0.918506C7.93126 0.582829 8.47405 0.582829 8.80616 0.918506L15.7482 7.85702C16.0839 8.19269 16.0839 8.73549 15.7482 9.0676L8.80616 16.0097C8.47048 16.3454 7.92769 16.3454 7.59558 16.0097L6.80281 15.2169C6.46356 14.8777 6.47071 14.3242 6.8171 13.992L11.1202 9.8925H0.857047C0.3821 9.8925 0 9.5104 0 9.03546V7.89273C0 7.41778 0.3821 7.03568 0.857047 7.03568H11.1202L6.8171 2.93614C6.46714 2.60403 6.45999 2.05052 6.80281 1.71127Z" fill="#0086D6"/>
</svg>
